<?xml version="1.0" encoding="UTF-8" standalone="no"?>
<!-- Generator: Adobe Illustrator 14.0.0, SVG Export Plug-In . SVG Version: 6.00 Build 43363)  -->

<svg
   xmlns:dc="http://purl.org/dc/elements/1.1/"
   xmlns:cc="http://creativecommons.org/ns#"
   xmlns:rdf="http://www.w3.org/1999/02/22-rdf-syntax-ns#"
   xmlns:svg="http://www.w3.org/2000/svg"
   xmlns="http://www.w3.org/2000/svg"
   xmlns:sodipodi="http://sodipodi.sourceforge.net/DTD/sodipodi-0.dtd"
   xmlns:inkscape="http://www.inkscape.org/namespaces/inkscape"
   version="1.1"
   id="icon-s-application-layer"
   x="0px"
   y="0px"
   width="18px"
   height="18px"
   viewBox="0 0 18 18"
   style="enable-background:new 0 0 18 18;"
   xml:space="preserve"
   inkscape:version="0.48.4 r9939"
   sodipodi:docname="icon-s-application.svg"><metadata
   id="metadata18"><rdf:RDF><cc:Work
       rdf:about=""><dc:format>image/svg+xml</dc:format><dc:type
         rdf:resource="http://purl.org/dc/dcmitype/StillImage" /><dc:title></dc:title></cc:Work></rdf:RDF></metadata><defs
   id="defs16" /><sodipodi:namedview
   pagecolor="#ffffff"
   bordercolor="#666666"
   borderopacity="1"
   objecttolerance="10"
   gridtolerance="10"
   guidetolerance="10"
   inkscape:pageopacity="0"
   inkscape:pageshadow="2"
   inkscape:window-width="1018"
   inkscape:window-height="743"
   id="namedview14"
   showgrid="false"
   inkscape:zoom="13.111111"
   inkscape:cx="9"
   inkscape:cy="9"
   inkscape:window-x="510"
   inkscape:window-y="117"
   inkscape:window-maximized="0"
   inkscape:current-layer="icon-s-application-layer" />
<g
   id="icon-s-application_1_">
	<rect
   style="fill:none;"
   width="18"
   height="18"
   id="rect4" />
	<path
   style="fill:#333333;"
   d="M7.573,1.674c0-0.013,0-0.028,0-0.043C7.57,1.484,7.562,1.138,7.325,0.754   C7.123,0.41,6.675,0.105,6.112,0.047c-0.011,0-0.021,0-0.032,0c-0.067-0.006-0.135-0.012-0.205-0.01h-1.99v0.002H1.923   C1.239,0.021,0.686,0.365,0.456,0.76C0.217,1.145,0.21,1.492,0.206,1.634c0,0.017,0,0.032,0,0.043L0.208,5.6   c0,0.014,0,0.025,0,0.044C0.21,5.789,0.229,6.135,0.466,6.519c0.229,0.391,0.776,0.729,1.45,0.718h3.942c0.016,0,0.032,0,0.048,0   c0.055,0,0.107-0.006,0.16-0.011c0.021,0,0.042,0,0.061-0.005c0.037-0.002,0.07-0.011,0.106-0.017   c0.511-0.087,0.914-0.37,1.101-0.689c0.238-0.387,0.247-0.733,0.25-0.876c0-0.016-0.001-0.031-0.001-0.041L7.573,1.674z"
   id="path6" />
	<path
   style="fill:#333333;"
   d="M10.438,7.31c0,0.011,0,0.024,0,0.04c0.003,0.139,0.009,0.486,0.238,0.881   c0.215,0.396,0.753,0.758,1.42,0.75h0.002h3.979c0.016,0,0.032,0,0.049,0c0.662,0,1.195-0.344,1.42-0.737   c0.238-0.394,0.246-0.75,0.249-0.892c0-0.026-0.001-0.042-0.001-0.051l-0.012-4.012c0-0.016,0-0.028-0.002-0.055   c-0.004-0.132-0.027-0.428-0.201-0.771c-0.188-0.41-0.734-0.853-1.445-0.832c-0.018,0-0.04,0-0.067,0.002h-3.923   c-0.684-0.018-1.236,0.332-1.467,0.736c-0.238,0.395-0.247,0.747-0.25,0.895c0,0.018,0,0.03,0.001,0.043L10.438,7.31z    M11.702,3.261c0,0,0,0,0-0.007c0-0.035,0.018-0.158,0.057-0.213c0.053-0.051,0.04-0.116,0.385-0.134h3.963l0.022-0.001h0.005   c0.283,0.021,0.242,0.057,0.313,0.143c0.024,0.046,0.044,0.11,0.052,0.162c0.008,0.053,0.008,0.08,0.008,0.08l0.012,4.034   c0,0.022,0,0.024,0,0.024c0.005,0.018-0.013,0.159-0.057,0.22c-0.053,0.054-0.039,0.117-0.386,0.134h-3.938c0,0-0.005,0-0.007,0   c-0.006,0-0.009,0-0.009,0c-0.323-0.018-0.297-0.072-0.352-0.128c-0.038-0.056-0.057-0.171-0.06-0.214l0.002-0.012l-0.012-4.084   V3.261z"
   id="path8" />
	<path
   style="fill:#333333;"
   d="M17.784,12.248c-0.004-0.138-0.01-0.484-0.236-0.881c-0.213-0.402-0.762-0.772-1.438-0.752   c-0.006,0-0.021,0-0.041,0h-3.924c-0.685-0.018-1.238,0.332-1.468,0.736c-0.239,0.395-0.247,0.748-0.251,0.895   c0,0.018,0,0.031,0.001,0.045l0.011,4.003c0,0.014,0,0.029,0,0.046c0.003,0.153,0.012,0.503,0.245,0.895   c0.224,0.396,0.77,0.746,1.438,0.729h3.956c0.016,0,0.033,0.002,0.051,0.002c0.662,0,1.194-0.346,1.419-0.739   c0.237-0.394,0.245-0.748,0.248-0.892c0-0.026,0-0.043,0-0.049l-0.013-3.994C17.782,12.285,17.784,12.269,17.784,12.248z    M16.462,16.555c-0.053,0.051-0.039,0.115-0.385,0.132v0.001h-3.934c-0.012,0-0.02,0-0.022,0c-0.323-0.018-0.3-0.072-0.353-0.121   c-0.037-0.051-0.055-0.173-0.057-0.214c0-0.005,0-0.01,0-0.01l0.001-0.011l-0.011-4.084v-0.016c0.001-0.04,0.02-0.155,0.058-0.209   c0.052-0.051,0.039-0.116,0.386-0.133h3.963h0.006c0.309,0.019,0.281,0.066,0.334,0.124c0.046,0.067,0.063,0.217,0.061,0.233v0.004   l-0.002,0.012l0.012,4.044c0.002,0.022,0.002,0.026,0.002,0.026C16.523,16.35,16.506,16.493,16.462,16.555z"
   id="path10" />
	<path
   style="fill:#333333;"
   d="M7.023,10.615H3.085c-0.686-0.018-1.238,0.334-1.468,0.737c-0.239,0.396-0.247,0.749-0.25,0.896   c0,0.016,0,0.028,0.001,0.039l0.011,3.998c0,0.016-0.001,0.035-0.001,0.06c0.003,0.155,0.013,0.508,0.252,0.898   c0.221,0.382,0.733,0.712,1.366,0.72h0.002h4.02c0.016,0,0.033,0,0.05,0c0.644,0,1.169-0.324,1.397-0.715   c0.241-0.388,0.253-0.742,0.256-0.9c0-0.021-0.001-0.037-0.001-0.049l0.004-4.004c0.001-0.018,0.001-0.041,0.001-0.067   c-0.003-0.167-0.017-0.521-0.26-0.904c-0.237-0.392-0.785-0.716-1.444-0.708 M7.445,16.348c0,0-0.016,0.164-0.057,0.216   c-0.047,0.047-0.032,0.106-0.371,0.124H3.108c-0.015-0.001-0.026-0.001-0.032-0.001c-0.003,0-0.004,0-0.004,0   c-0.333-0.017-0.315-0.073-0.363-0.12c-0.038-0.052-0.058-0.176-0.057-0.215c0-0.007,0-0.007,0-0.007l0.001-0.013l-0.01-4.078   l-0.001-0.016c0-0.037,0.019-0.158,0.059-0.214c0.052-0.052,0.039-0.117,0.384-0.134h3.93c0.341,0.02,0.335,0.085,0.381,0.127   c0.038,0.051,0.054,0.21,0.054,0.21L7.445,16.348z"
   id="path12" />
</g>
<path
   style="fill:#ffffff"
   d="M 1.2851384,7.0836042 C 0.88614,6.9300532 0.5838194,6.6628387 0.41534164,6.3148101 0.2587531,5.9913414 0.2539444,5.8959732 0.27532089,3.537866 L 0.29745763,1.0958945 0.52627119,0.77211271 C 0.96803069,0.14700264 1.0373279,0.13270855 3.7482161,0.10751536 6.3006189,0.08379502 6.5744036,0.11257908 6.971063,0.44634595 7.4752488,0.87059036 7.4885932,0.947772 7.5167556,3.6025146 7.5416961,5.9535439 7.5387909,6.0089643 7.3744524,6.3171007 7.165029,6.709772 6.8229177,7.0026562 6.4539873,7.1051182 6.0463249,7.2183371 1.587009,7.1997764 1.2851384,7.0836042 l 0,0 z"
   id="path2995"
   inkscape:connector-curvature="0" /><path
   style="fill:#ffffff"
   d="M 11.605732,8.8650391 C 11.16845,8.7291801 10.868786,8.4743034 10.670973,8.0699881 L 10.473572,7.6665146 10.495684,5.1820552 10.517797,2.6975959 10.74661,2.3727973 C 10.875798,2.1894166 11.124863,1.9710069 11.318644,1.8711696 11.659666,1.6954733 11.67807,1.694459 14.19145,1.7128482 l 2.529586,0.018508 0.323791,0.2288136 c 0.628529,0.4441627 0.639448,0.4987116 0.664426,3.3193893 l 0.02196,2.4804063 -0.180429,0.3416276 c -0.119478,0.2262226 -0.305167,0.418923 -0.549685,0.5704412 l -0.369257,0.2288136 -2.40872,0.014512 c -1.324796,0.00798 -2.502624,-0.014663 -2.617395,-0.050321 z M 16.506738,7.563012 c 0.126813,-0.2369511 0.06918,-4.4568749 -0.06267,-4.5885587 -0.07668,-0.076589 -0.595199,-0.09903 -2.288136,-0.09903 -1.20394,0 -2.249046,0.024664 -2.322457,0.05481 C 11.71049,2.9807355 11.7,3.1670538 11.7,5.3009961 c 0,1.2737742 0.02288,2.3388344 0.05085,2.3668005 0.02797,0.027966 1.090742,0.050847 2.361724,0.050847 2.248107,0 2.313138,-0.00423 2.394167,-0.1556321 z"
   id="path2997"
   inkscape:connector-curvature="0" /><path
   style="fill:#ffffff"
   d="m 11.60114,17.832397 c -0.429907,-0.118033 -0.779957,-0.421471 -0.976879,-0.846804 -0.128039,-0.276551 -0.14125,-0.529784 -0.14125,-2.707627 0,-2.668799 0.02132,-2.801331 0.517757,-3.219058 0.452919,-0.381107 0.631697,-0.403823 3.178046,-0.403823 2.29215,0 2.374019,0.0051 2.678965,0.168265 0.389819,0.208525 0.685235,0.551575 0.794008,0.922036 0.05453,0.185719 0.07483,1.121468 0.05924,2.729931 l -0.02374,2.44735 -0.21826,0.314798 c -0.130411,0.188093 -0.360652,0.384949 -0.572034,0.48909 -0.342111,0.168547 -0.429206,0.17482 -2.641909,0.190284 -1.698873,0.01187 -2.382342,-0.0099 -2.653945,-0.08444 z m 4.863622,-1.236868 c 0.108713,-0.108714 0.120503,-0.381564 0.100787,-2.332506 -0.02107,-2.085031 -0.03066,-2.215479 -0.170381,-2.317562 -0.119228,-0.08711 -0.552598,-0.108173 -2.225967,-0.108173 -1.165533,0 -2.163819,0.03266 -2.273558,0.07438 L 11.7,11.986055 l 0,2.274769 c 0,1.66757 0.02443,2.2992 0.09153,2.366295 0.06701,0.06701 0.68862,0.09153 2.320824,0.09153 1.949986,0 2.244723,-0.01543 2.352413,-0.123115 z"
   id="path2999"
   inkscape:connector-curvature="0" /><path
   style="fill:#ffffff"
   d="M 2.6618644,17.869714 C 2.1656073,17.744455 1.7833312,17.454533 1.5463955,17.023729 1.4651716,16.876045 1.4361317,16.286661 1.4176044,14.409829 l -0.023921,-2.423222 0.1887667,-0.412321 c 0.3952972,-0.863443 0.8762057,-0.982626 3.8096107,-0.944127 1.8292372,0.02401 2.0277046,0.03964 2.3418375,0.184467 0.4197107,0.193501 0.8156727,0.62849 0.877353,0.963828 0.025242,0.137232 0.035515,1.350396 0.02283,2.695921 l -0.023064,2.44641 -0.204713,0.309181 C 8.2777781,17.42408 8.0648863,17.606453 7.83427,17.719997 c -0.3596058,0.177052 -0.4153799,0.18113 -2.6554564,0.194161 -1.2584746,0.0073 -2.3911017,-0.01268 -2.5169492,-0.04444 z m 4.726581,-1.27414 c 0.1087054,-0.108705 0.1204691,-0.383947 0.1007868,-2.358161 -0.012256,-1.2293 -0.050829,-2.263643 -0.085719,-2.29854 -0.0962,-0.09622 -4.3260795,-0.125316 -4.5729499,-0.03146 l -0.2068343,0.07864 0,2.274769 c 0,1.66757 0.024431,2.2992 0.091525,2.366295 0.067011,0.06701 0.6886199,0.09153 2.3208232,0.09153 1.9496484,0 2.2447362,-0.01544 2.352368,-0.12307 l 0,0 z"
   id="path3001"
   inkscape:connector-curvature="0" /></svg>